#!OML:ASF I:\Actors\actors\Patient Classification 1\Patient 1\Session 1\Subject1.ASF
:FULLY-SPECIFIED
:DEGREES
590
root 0.337786 17.7182 8.53473 21.8684 10.9363 -8.50587
lowerback 17.1504 -2.38982 10.7704
upperback 1.48818 -0.39029 7.77647
thorax -8.08531 -0.404327 2.4829
lowerneck 6.86702 -13.5294 -8.71919
upperneck -22.7504 -15.6491 24.2658
head -4.98131 -9.29282 9.99247
rclavicle 1.35174e-014 -1.03368e-013
rhumerus 10.4787 34.9013 -79.7744
rradius 27.9986
rwrist 28.1488
rhand -6.465 -30.4299
rfingers 7.12502
rthumb 19.3853 -59.4836
lclavicle 1.35174e-014 -1.03368e-013
lhumerus -6.42474 -13.0811 93.2353
lradius 26.8894
lwrist -13.3065
lhand -21.9565 -17.9835
lfingers 7.12502
lthumb 4.45075 11.9497
rfemur -20.2419 20.6352 19.077
rtibia 7.14282
rfoot -14.0203 -31.0504
rtoes 9.60413
lfemur -23.415 -48.3545 10.1287
ltibia -3.14799
lfoot -14.771 53.4552
ltoes 3.62541
591
root 0.330235 17.7264 8.54977 21.6305 10.6697 -7.76826
lowerback 17.6667 -2.62449 10.7918
upperback 1.52264 -0.574819 8.13317
thorax -8.34044 -0.490901 2.9374
lowerneck 6.47952 -13.7905 -8.11407
upperneck -22.6736 -16.1497 22.83
head -5.02931 -9.43471 9.38479
rclavicle 1.51076e-014 3.02153e-014
rhumerus 10.7349 34.6953 -79.4788
rradius 28.4254
rwrist 26.0706
rhand -5.3868 -30.0462
rfingers 7.12502
rthumb 20.4217 -58.9923
lclavicle 1.51076e-014 3.02153e-014
lhumerus -7.44427 -14.4078 93.2074
lradius 27.4214
lwrist -12.3906
lhand -22.2823 -18.5399
lfingers 7.12502
lthumb 4.13621 11.3997
rfemur -19.6482 21.419 18.3813
rtibia 6.95537
rfoot -14.5884 -32.2762
rtoes 9.97739
lfemur -22.1936 -47.3403 8.15368
ltibia -3.46481
lfoot -13.2382 52.1571
ltoes 2.29262
592
root 0.332544 17.7245 8.55379 21.8392 10.1796 -7.20386
lowerback 17.8644 -2.82336 11.0628
upperback 1.45912 -0.71573 8.37754
thorax -8.52853 -0.568267 3.11301
lowerneck 6.40759 -13.754 -7.48202
upperneck -23.1778 -16.1297 21.7697
head -5.35802 -9.38643 9.01172
rclavicle -1.35174e-014 -1.74931e-013
rhumerus 11.0408 35.3487 -79.024
rradius 28.9186
rwrist 25.0214
rhand -5.10136 -30.2854
rfingers 7.12502
rthumb 20.696 -59.2019
lclavicle -1.35174e-014 -1.74931e-013
lhumerus -8.28026 -15.5369 93.0091
lradius 27.7765
lwrist -11.5994
lhand -22.559 -19.2862
lfingers 7.12502
lthumb 3.86895 10.6584
rfemur -19.8322 21.7747 17.6338
rtibia 6.96645
rfoot -14.8487 -33.0121
rtoes 9.90105
lfemur -22.012 -46.8874 7.30677
ltibia -3.57853
lfoot -13.0079 51.7302
ltoes 2.31881
593
root 0.340172 17.7162 8.55195 22.3129 9.48614 -6.67276
lowerback 17.8204 -2.91426 11.4718
upperback 1.32051 -0.732631 8.4967
thorax -8.66592 -0.595478 3.03402
lowerneck 6.05408 -13.6657 -7.30987
upperneck -22.9829 -16.1157 21.0047
head -5.34042 -9.3046 8.70047
rclavicle -5.56597e-015 7.95139e-015
rhumerus 11.304 36.3425 -78.4312
rradius 29.2783
rwrist 25.0304
rhand -5.68094 -30.626
rfingers 7.12502
rthumb 20.139 -59.6022
lclavicle -5.56597e-015 7.95139e-015
lhumerus -9.01823 -16.3484 92.9115
lradius 27.9452
lwrist -11.4076
lhand -22.9744 -20.2292
lfingers 7.12502
lthumb 3.46782 9.72232
rfemur -20.4089 22.1261 16.6865
rtibia 6.95789
rfoot -14.9675 -33.5497
rtoes 9.78252
lfemur -22.3652 -46.7617 6.96738
ltibia -3.5976
lfoot -13.7918 51.8176
ltoes 3.64689
594
root 0.348029 17.7066 8.55104 22.7767 8.69742 -6.12922
lowerback 17.7245 -2.99038 11.8289
upperback 1.16508 -0.756958 8.52511
thorax -8.79391 -0.627325 2.88275
lowerneck 5.96095 -13.4722 -7.04361
upperneck -22.8723 -15.939 20.2518
head -5.42461 -9.16183 8.42062
rclavicle -7.95139e-016 -3.18055e-015
rhumerus 11.6123 37.4509 -77.7857
rradius 29.5941
rwrist 25.0568
rhand -6.05124 -30.6667
rfingers 7.12502
rthumb 19.7831 -59.6799
lclavicle -7.95139e-016 -3.18055e-015
lhumerus -9.74905 -16.7143 92.8615
lradius 27.999
lwrist -11.6679
lhand -23.3877 -21.0886
lfingers 7.12502
lthumb 3.06865 8.86907
rfemur -20.9149 22.646 15.6319
rtibia 6.80444
rfoot -15.0779 -34.0421
rtoes 9.71238
lfemur -22.5699 -46.6094 6.45538
ltibia -3.63058
lfoot -14.8617 51.8392
ltoes 5.21346
595
root 0.354814 17.6967 8.54941 23.1358 7.92167 -5.68589
lowerback 17.6844 -3.10431 12.1929
upperback 1.03474 -0.824213 8.53378
thorax -8.92771 -0.680523 2.71926
lowerneck 6.10178 -13.1617 -6.6591
upperneck -22.9682 -15.5559 19.5979
head -5.64007 -8.94785 8.19973
rclavicle 3.97569e-015 1.59028e-015
rhumerus 12.0969 38.1414 -77.2333
rradius 30.0116
rwrist 23.7717
rhand -4.86047 -30.2957
rfingers 7.12502
rthumb 20.9275 -59.1868
lclavicle 3.97569e-015 1.59028e-015
lhumerus -10.4608 -16.7811 92.7638
lradius 28.0477
lwrist -11.9965
lhand -23.6016 -21.6398
lfingers 7.12502
lthumb 2.86209 8.3207
rfemur -21.3274 23.2237 14.6536
rtibia 6.63847
rfoot -15.2461 -34.3495
rtoes 9.83431
lfemur -22.6402 -46.4897 5.93746
ltibia -3.63525
lfoot -15.8341 51.8751
ltoes 6.39825
596
root 0.354599 17.69 8.55074 23.6554 6.86954 -5.00902
lowerback 17.45 -2.99774 12.0842
upperback 0.953415 -0.746078 8.51698
thorax -8.88213 -0.642102 2.73099
lowerneck 6.26512 -12.8174 -6.18939
upperneck -23.3714 -15.156 18.6096
head -5.99605 -8.70666 7.88898
rclavicle 7.95139e-016 5.40694e-014
rhumerus 12.7476 38.7766 -76.3364
rradius 30.134
rwrist 23.5125
rhand -4.29266 -30.1288
rfingers 7.12502
rthumb 21.4729 -58.9587
lclavicle 7.95139e-016 5.40694e-014
lhumerus -10.9427 -16.6791 92.887
lradius 27.9654
lwrist -12.4466
lhand -23.8395 -22.0027
lfingers 7.12502
lthumb 2.63236 7.96077
rfemur -22.0564 23.8528 13.1973
rtibia 6.59836
rfoot -15.3449 -34.4133
rtoes 9.7926
lfemur -22.8072 -46.1682 5.15082
ltibia -3.598
lfoot -16.8509 51.9079
ltoes 7.81085
597
root 0.34606 17.6861 8.55963 24.4726 5.31056 -4.11022
lowerback 16.8257 -2.6024 11.3074
upperback 0.910505 -0.504406 8.44438
thorax -8.55728 -0.494658 2.97944
lowerneck 6.29746 -12.6287 -6.39773
upperneck -23.6002 -14.9323 18.47
head -6.09724 -8.57435 7.90026
rclavicle -3.02153e-014 3.49861e-014
rhumerus 13.446 39.2259 -75.3118
rradius 30.1211
rwrist 23.8233
rhand -4.10622 -29.8684
rfingers 7.12502
rthumb 21.652 -58.6777
lclavicle -3.02153e-014 3.49861e-014
lhumerus -11.1797 -16.2534 93.1845
lradius 27.6863
lwrist -12.9469
lhand -24.2596 -22.2995
lfingers 7.12502
lthumb 2.22668 7.66863
rfemur -23.3305 24.3621 11.2507
rtibia 6.75111
rfoot -15.0614 -34.0539
rtoes 9.03459
lfemur -23.0001 -45.4202 3.99533
ltibia -3.63765
lfoot -18.287 51.8781
ltoes 9.98705
598
root 0.341616 17.692 8.56525 24.8933 4.13332 -3.57333
lowerback 16.6203 -2.41953 11.0638
upperback 0.891992 -0.355679 8.386
thorax -8.45417 -0.415739 3.00129
lowerneck 6.12024 -12.3819 -6.11513
upperneck -23.6331 -14.6425 17.9058
head -6.19644 -8.39665 7.67496
rclavicle -2.70347e-014 1.03368e-013
rhumerus 13.9095 39.4492 -74.6104
rradius 30.1791
rwrist 24.1393
rhand -3.96375 -29.6664
rfingers 7.12502
rthumb 21.7888 -58.4599
lclavicle -2.70347e-014 1.03368e-013
lhumerus -11.373 -15.381 93.4412
lradius 27.3233
lwrist -13.4846
lhand -24.7928 -22.5809
lfingers 7.12502
lthumb 1.71166 7.39197
rfemur -24.052 24.6605 10.0142
rtibia 6.74517
rfoot -14.645 -33.6922
rtoes 8.13226
lfemur -23.0646 -44.9729 3.18716
ltibia -3.54361
lfoot -19.3854 51.9799
ltoes 11.4455
599
root 0.339418 17.6968 8.57107 25.1138 3.2435 -3.42842
lowerback 16.5268 -2.35163 11.2888
upperback 0.912888 -0.249339 8.37191
thorax -8.37656 -0.37328 2.83077
lowerneck 5.76629 -12.2281 -6.02927
upperneck -23.3544 -14.4509 17.7523
head -6.0928 -8.28185 7.56058
rclavicle -1.11319e-014 -4.77083e-014
rhumerus 14.2271 39.3522 -74.2476
rradius 30.1569
rwrist 24.3987
rhand -3.97214 -29.6673
rfingers 7.12502
rthumb 21.7807 -58.4618
lclavicle -1.11319e-014 -4.77083e-014
lhumerus -11.4457 -14.0842 93.6693
lradius 26.8509
lwrist -14.0902
lhand -25.2598 -22.8191
lfingers 7.12502
lthumb 1.2607 7.15696
rfemur -24.4719 24.8803 9.49666
rtibia 6.7192
rfoot -14.1816 -33.3593
rtoes 7.15251
lfemur -23.0287 -44.6646 2.82292
ltibia -3.45417
lfoot -19.8809 52.2652
ltoes 11.9073
600
root 0.334385 17.7034 8.57749 25.2569 2.45131 -3.21602
lowerback 16.4571 -2.35314 11.3826
upperback 0.9553 -0.257954 8.34781
thorax -8.29076 -0.379777 2.74915
lowerneck 5.37724 -12.0279 -5.46736
upperneck -23.2303 -14.2381 16.9784
head -6.13616 -8.1372 7.19833
rclavicle -1.74931e-014 -2.06736e-014
rhumerus 14.4955 39.1178 -74.1105
rradius 30.0408
rwrist 24.459
rhand -4.13043 -29.843
rfingers 7.12502
rthumb 21.6287 -58.6551
lclavicle -1.74931e-014 -2.06736e-014
lhumerus -11.2931 -12.4973 93.8807
lradius 26.1333
lwrist -14.6553
lhand -25.5873 -23.0314
lfingers 7.12502
lthumb 0.944313 6.94621
rfemur -24.8148 25.0212 9.01757
rtibia 6.79875
rfoot -13.7931 -33.0629
rtoes 6.5616
lfemur -22.9737 -44.5043 2.39714
ltibia -3.33878
lfoot -20.2893 52.588
ltoes 12.1767
601
root 0.323484 17.7085 8.58319 25.3551 1.68714 -3.06747
lowerback 16.4118 -2.35841 11.3795
upperback 0.968671 -0.278162 8.35797
thorax -8.25082 -0.389208 2.76429
lowerneck 5.16001 -11.7838 -5.16694
upperneck -23.0695 -13.9747 16.3795
head -6.16027 -7.96766 6.93868
rclavicle 1.43125e-014 1.22451e-013
rhumerus 14.562 38.7533 -74.2034
rradius 29.8507
rwrist 24.4139
rhand -4.39447 -30.1231
rfingers 7.12502
rthumb 21.3751 -58.9641
lclavicle 1.43125e-014 1.22451e-013
lhumerus -11.1566 -10.7181 94.1431
lradius 25.3296
lwrist -15.3184
lhand -25.7978 -23.1425
lfingers 7.12502
lthumb 0.741035 6.83599
rfemur -25.1414 25.1315 8.66139
rtibia 6.91941
rfoot -13.4922 -32.6915
rtoes 6.38655
lfemur -22.8816 -44.3477 2.02864
ltibia -3.20409
lfoot -21.1479 52.8843
ltoes 12.867
602
root 0.310203 17.7107 8.58772 25.3767 1.13259 -3.01313
lowerback 16.4136 -2.40281 11.4951
upperback 0.945924 -0.309766 8.40659
thorax -8.27951 -0.409835 2.76456
lowerneck 5.14654 -11.5267 -5.0581
upperneck -22.9656 -13.687 15.9473
head -6.20605 -7.79229 6.77831
rclavicle -1.59028e-015 -4.45278e-014
rhumerus 14.5269 38.1914 -74.3904
rradius 29.5328
rwrist 24.5557
rhand -4.5955 -30.3428
rfingers 7.12502
rthumb 21.182 -59.2056
lclavicle -1.59028e-015 -4.45278e-014
lhumerus -11.1446 -8.89451 94.477
lradius 24.6676
lwrist -16.1679
lhand -25.9012 -23.0569
lfingers 7.12502
lthumb 0.641212 6.92186
rfemur -25.3226 25.2149 8.50497
rtibia 6.9707
rfoot -13.2839 -32.4006
rtoes 6.20513
lfemur -22.8443 -44.3386 1.87427
ltibia -3.03619
lfoot -21.9021 53.2415
ltoes 13.3771
